{
  "accessors": [
    {
      "bufferView": 1,
      "componentType": 5126,
      "count": 65532,
      "max": [
        16.529619216918945,
        12.22284984588623,
        16.532869338989258
      ],
      "min": [
        -1.7555299997329712,
        -6.0908598899841309,
        -7.0081300735473633
      ],
      "type": "VEC3"
    },
    {
      "bufferView": 1,
      "byteOffset": 786384,
      "componentType": 5126,
      "count": 65532,
      "max": [
        0.99999600648880005,
        0.99998396635055542,
        1
      ],
      "min": [
        -0.99998360872268677,
        -0.99999600648880005,
        -1
      ],
      "type": "VEC3"
    },
    {
      "bufferView": 0,
      "componentType": 5125,
      "count": 179505,
      "max": [
        65531
      ],
      "min": [
        0
      ],
      "type": "SCALAR"
    },
    {
      "bufferView": 1,
      "byteOffset": 1572768,
      "componentType": 5126,
      "count": 31429,
      "max": [
        14.130240440368652,
        9.8259201049804688,
        5.3536801338195801
      ],
      "min": [
        0.56238001585006714,
        -3.7466599941253662,
        -7.0081300735473633
      ],
      "type": "VEC3"
    },
    {
      "bufferView": 1,
      "byteOffset": 1949916,
      "componentType": 5126,
      "count": 31429,
      "max": [
        0.99927115440368652,
        0.99927103519439697,
        1
      ],
      "min": [
        -0.99927115440368652,
        -0.99927103519439697,
        -1
      ],
      "type": "VEC3"
    },
    {
      "bufferView": 0,
      "byteOffset": 718020,
      "componentType": 5125,
      "count": 86040,
      "max": [
        31428
      ],
      "min": [
        0
      ],
      "type": "SCALAR"
    },
    {
      "bufferView": 1,
      "byteOffset": 2327064,
      "componentType": 5126,
      "count": 49920,
      "max": [
        15.720000267028809,
        11.34613037109375,
        1.0200999975204468
      ],
      "min": [
        -0.8830299973487854,
        -5.2283401489257812,
        -1.7460700273513794
      ],
      "type": "VEC3"
    },
    {
      "bufferView": 1,
      "byteOffset": 2926104,
      "componentType": 5126,
      "count": 49920,
      "max": [
        0.99680060148239136,
        0.99680131673812866,
        0.99134248495101929
      ],
      "min": [
        -0.99680107831954956,
        -0.99680131673812866,
        -0.98730635643005371
      ],
      "type": "VEC3"
    },
    {
      "bufferView": 0,
      "byteOffset": 1062180,
      "componentType": 5125,
      "count": 74880,
      "max": [
        49919
      ],
      "min": [
        0
      ],
      "type": "SCALAR"
    },
    {
      "bufferView": 1,
      "byteOffset": 3525144,
      "componentType": 5126,
      "count": 24,
      "max": [
        1,
        1,
        1
      ],
      "min": [
        -1,
        -1,
        -1
      ],
      "type": "VEC3"
    },
    {
      "bufferView": 1,
      "byteOffset": 3525432,
      "componentType": 5126,
      "count": 24,
      "max": [
        1,
        1,
        1
      ],
      "min": [
        -1,
        -1,
        -1
      ],
      "type": "VEC3"
    },
    {
      "bufferView": 0,
      "byteOffset": 1361700,
      "componentType": 5125,
      "count": 36,
      "max": [
        23
      ],
      "min": [
        0
      ],
      "type": "SCALAR"
    }
  ],
  "asset": {
    "extras": {
      "author": "Dolores (https://sketchfab.com/upto21)",
      "license": "CC-BY-4.0 (http://creativecommons.org/licenses/by/4.0/)",
      "source": "https://sketchfab.com/models/82603f1fe3ed4c31b37786e2bc2b63b0",
      "title": "Charminar, Hyderabad"
    },
    "generator": "Sketchfab-3.18.7",
    "version": "2.0"
  },
  "bufferViews": [
    {
      "buffer": 0,
      "byteLength": 1361844,
      "byteOffset": 0,
      "name": "floatBufferViews",
      "target": 34963
    },
    {
      "buffer": 0,
      "byteLength": 3525720,
      "byteOffset": 1361844,
      "byteStride": 12,
      "name": "floatBufferViews",
      "target": 34962
    }
  ],
  "buffers": [
    {
      "byteLength": 4887564,
      "uri": "scene.bin"
    }
  ],
  "materials": [
    {
      "doubleSided": true,
      "emissiveFactor": [
        0,
        0,
        0
      ],
      "name": "Material.001",
      "pbrMetallicRoughness": {
        "baseColorFactor": [
          0.090837463699999996,
          0.075331941200000002,
          0.062650918999999999,
          1
        ],
        "metallicFactor": 0,
        "roughnessFactor": 0.59999999999999998
      }
    },
    {
      "doubleSided": true,
      "name": "Material",
      "pbrMetallicRoughness": {
        "baseColorFactor": [
          0.69819146389999998,
          0.61243039369999996,
          0.39344066379999998,
          1
        ],
        "metallicFactor": 0,
        "roughnessFactor": 1
      }
    }
  ],
  "meshes": [
    {
      "name": "Circle.003_0",
      "primitives": [
        {
          "attributes": {
            "NORMAL": 1,
            "POSITION": 0
          },
          "indices": 2,
          "material": 1,
          "mode": 4
        }
      ]
    },
    {
      "name": "Circle.003_0",
      "primitives": [
        {
          "attributes": {
            "NORMAL": 4,
            "POSITION": 3
          },
          "indices": 5,
          "material": 1,
          "mode": 4
        }
      ]
    },
    {
      "name": "Circle.006_0",
      "primitives": [
        {
          "attributes": {
            "NORMAL": 7,
            "POSITION": 6
          },
          "indices": 8,
          "material": 1,
          "mode": 4
        }
      ]
    },
    {
      "name": "Cube_0",
      "primitives": [
        {
          "attributes": {
            "NORMAL": 10,
            "POSITION": 9
          },
          "indices": 11,
          "material": 0,
          "mode": 4
        }
      ]
    }
  ],
  "nodes": [
    {
      "children": [
        1
      ],
      "name": "RootNode (gltf orientation matrix)",
      "rotation": [
        -0.70710678118654746,
        -0,
        -0,
        0.70710678118654757
      ]
    },
    {
      "children": [
        2
      ],
      "name": "RootNode (model correction matrix)"
    },
    {
      "children": [
        3,
        5,
        8,
        10
      ],
      "name": "Root"
    },
    {
      "children": [
        4
      ],
      "matrix": [
        -0.29086000000000006,
        0.95517000000000007,
        -0.05519000000000001,
        0,
        -0.77110000000000001,
        -0.19988000000000003,
        0.60452000000000006,
        0,
        0.56639000000000006,
        0.21839000000000003,
        0.7946700000000001,
        0,
        4.0762500000000008,
        1.00545,
        5.9038600000000008,
        1
      ],
      "name": "Lamp"
    },
    {
      "name": "Lamp"
    },
    {
      "children": [
        6,
        7
      ],
      "matrix": [
        0.063490000000000019,
        -0.15344000000000005,
        0,
        0,
        0.15344000000000005,
        0.063490000000000019,
        0,
        0,
        0,
        0,
        0.16606000000000004,
        0,
        -0.9652400000000001,
        2.7468699999999999,
        1.2517699999999998,
        1
      ],
      "name": "Circle.003"
    },
    {
      "mesh": 0,
      "name": "Circle.003_0"
    },
    {
      "mesh": 1,
      "name": "Circle.003_0"
    },
    {
      "children": [
        9
      ],
      "matrix": [
        -0.15344000000000005,
        -0.063490000000000019,
        0,
        0,
        0.063490000000000019,
        -0.15344000000000005,
        0,
        0,
        0,
        0,
        0.16606000000000004,
        0,
        0.91827999999999999,
        2.7483800000000005,
        3.8084499999999997,
        1
      ],
      "name": "Circle.006"
    },
    {
      "mesh": 2,
      "name": "Circle.006_0"
    },
    {
      "children": [
        11
      ],
      "matrix": [
        1.64272,
        0,
        0,
        0,
        0,
        1.64272,
        0,
        0,
        0,
        0,
        0.32693000000000005,
        0,
        -0.046970000000000012,
        1.83131,
        -0.24172000000000002,
        1
      ],
      "name": "Cube"
    },
    {
      "mesh": 3,
      "name": "Cube_0"
    }
  ],
  "scene": 0,
  "scenes": [
    {
      "name": "OSG_Scene",
      "nodes": [
        0
      ]
    }
  ]
}

